<svg xmlns="http://www.w3.org/2000/svg" width="246.777" height="251.768" viewBox="0 0 246.777 251.768">
  <g id="Group_14" data-name="Group 14" transform="translate(-316.223 -98.232)">
    <g id="Group_8" data-name="Group 8" transform="translate(313)">
      <path id="Path_45" data-name="Path 45" d="M823.117,390.333l-24.589-46.995,24.539,52.051-.051,5.288q2.693.026,5.333-.115l-1.22-67.975.033-.524-.045-.1L827,325.538l26.928-50.246-26.9,45.439-.1,1.358-.921-51.358,23.258-52.094-23.325,43.072.243-106.4v-.354l-.008.348L824.64,239.16l-21.2-34.063,21.128,41.287-.463,45.938L804.6,247.488l19.434,51.588-.258,25.544-28.367-62.453,28.281,71.365Z" transform="translate(-792.189 -56.722)" fill="#03528a"/>
      <ellipse id="Ellipse_4" data-name="Ellipse 4" cx="104.241" cy="6.827" rx="104.241" ry="6.827" transform="translate(20.74 336.347)" fill="#b9c6d1"/>
      <ellipse id="Ellipse_5" data-name="Ellipse 5" cx="3.155" cy="4.055" rx="3.155" ry="4.055" transform="translate(60.918 339.835)" fill="#3f3d56"/>
      <path id="Path_46" data-name="Path 46" d="M716.758,488.428l8.319-28.387s-1.291-5.346,2.152-4.977,12.621,4.424,12.621,4.424,3.155.369-1.147,6.083l-7.458,30.046-2.438-1.475,8.032-29.861s.43-2.028-1.147-2.581-7.6-3.871-8.175-1.843-8.032,31.152-8.032,31.152Z" transform="translate(-653.115 -228.777)" fill="#3f3d56"/>
      <path id="Path_47" data-name="Path 47" d="M782.846,544.028l-16.064,61.751a16.022,16.022,0,0,1-4.192,2.6,18.04,18.04,0,0,1-4.126,1.266,3.92,3.92,0,0,1-1.559-.159c-8.26-2.12-36.592-21.593-36.592-21.593s14.486-58.064,16.924-65.069,7.888-4.424,7.888-4.424,27.531,9.554,31.482,11.329q.123.055.215.1a9.625,9.625,0,0,1,4.3,4.238l0,0C785.141,537.208,782.846,544.028,782.846,544.028Z" transform="translate(-696.829 -264.838)" fill="#ffa200"/>
      <path id="Path_48" data-name="Path 48" d="M801.267,528.093l-.078.355c-1.243-.448-2.3,3.116-2.313,3.152l-17.641,62.855-.27-.125,2.237-7.97-24.027-13.639-1.892,6.986-.271-.121L772.8,521.317l.009-.018c.056-.114,1.387-2.787,2.965-2.248l-.073.356c-1.319-.451-2.528,1.851-2.641,2.072l-3.34,12.333,25.258,10.611,3.635-12.95C798.655,531.311,799.77,527.554,801.267,528.093ZM769.62,534.16l-2.461,9.085,24.866,11.679,2.85-10.154Zm19.469,31.224,2.838-10.114-24.863-11.678-2.443,9.02Zm-24.562-12.423-2.678,9.888,24.426,12.562,2.717-9.68Zm18.772,33.05,2.878-10.254L761.755,563.2l-2.485,9.173Z" transform="translate(-726.78 -265.433)" opacity="0.2"/>
      <path id="Path_49" data-name="Path 49" d="M749.763,557.665c-1.434,2.949-17.5,64.7-17.5,64.7a12.249,12.249,0,0,1-1.037,1.867A18.04,18.04,0,0,1,727.1,625.5a3.92,3.92,0,0,1-1.559-.158c.987-.457,3.191-1.937,4.284-6.293,1.434-5.714,17.211-65.99,17.211-65.99a30.823,30.823,0,0,0-1.793-7.473l.215.1a9.626,9.626,0,0,1,4.3,4.238v0S751.2,554.715,749.763,557.665Z" transform="translate(-665.467 -280.686)" opacity="0.2"/>
      <path id="Path_50" data-name="Path 50" d="M741.11,605.869l-1.578,6.267s1.291,12.35-5.45,20.461l-1.434,6.267,1.482.052L735.7,632.9a40.281,40.281,0,0,0,5.236-20.126l1.327-6.9Z" transform="translate(-659.683 -315.25)" fill="#3f3d56"/>
      <ellipse id="Ellipse_6" data-name="Ellipse 6" cx="3.155" cy="4.055" rx="3.155" ry="4.055" transform="translate(51.237 339.927)" fill="#3f3d56"/>
      <ellipse id="Ellipse_7" data-name="Ellipse 7" cx="3.155" cy="4.055" rx="3.155" ry="4.055" transform="translate(20.615 322.877)" fill="#3f3d56"/>
      <path id="Path_54" data-name="Path 54" d="M720.619,442.547l-1.328,4.267s-8.631,6.827-4.98,11.52,9.148-7.893,9.148-7.893l2.139-5.333Z" transform="translate(-636.638 -221.611)" fill="#a0616a"/>
      <g id="Group_1" data-name="Group 1">
        <path id="Path_51" data-name="Path 51" d="M544.982,286.547s7.3,1.707,7.635,5.547a57.734,57.734,0,0,1,0,8.107Z" transform="translate(-407.883 -132.17)" fill="#575a89"/>
        <path id="Path_52" data-name="Path 52" d="M473.161,370.366s21.247,9.813,35.19,1.28,30.874-19.2,30.874-19.2,8.3.853,7.3-5.547-7.635-43.519-22.906-55.892c0,0-9.3-15.36-14.607-14.506s-25.894,64-25.894,64Z" transform="translate(-377.892 -126.39)" fill="#575a89"/>
        <path id="Path_53" data-name="Path 53" d="M473.161,370.366s21.247,9.813,35.19,1.28,30.874-19.2,30.874-19.2,8.3.853,7.3-5.547-7.635-43.519-22.906-55.892c0,0-9.3-15.36-14.607-14.506s-25.894,64-25.894,64Z" transform="translate(-377.892 -126.39)" opacity="0.2"/>
        <path id="Path_55" data-name="Path 55" d="M285.387,463.726l1.328,29.44-6.972,3.84-2.656-35.413Z" transform="translate(-128.701 -166.419)" fill="#a0616a"/>
        <path id="Path_56" data-name="Path 56" d="M386.338,466.593l-9.3,15.36-2.656,10.24-6.64-.427-1.66-10.24,9.3-11.946Z" transform="translate(-257.871 -169.285)" fill="#a0616a"/>
        <ellipse id="Ellipse_8" data-name="Ellipse 8" cx="8.963" cy="11.52" rx="8.963" ry="11.52" transform="translate(120.333 123.444)" fill="#a0616a"/>
        <path id="Path_57" data-name="Path 57" d="M597.7,256.387l-.664,10.667-10.623-4.267s3.984-8.107,2.988-10.24Z" transform="translate(-466.576 -112.676)" fill="#a0616a"/>
        <path id="Path_58" data-name="Path 58" d="M564.006,272.534s-6.29,2.133-9.951-2.987l-7.644,4.693,9.959,47.786,20.915-7.253-3.32-9.387s4.316-6.4-.332-12.373c0,0-1-11.946-3.984-14.506A47.2,47.2,0,0,1,564.006,272.534Z" transform="translate(-432.883 -122.423)" fill="#d0cde1"/>
        <path id="Path_59" data-name="Path 59" d="M643.108,269.047s11.287,11.52-1,45.652-22.575,63.145-26.558,61.439-17.595-14.933-12.947-19.626,24.234-19.626,26.89-39.253-3.652-39.679-3.652-39.679Z" transform="translate(-521.778 -122.136)" fill="#575a89"/>
        <path id="Path_60" data-name="Path 60" d="M441.637,144.593l-28.55,61.865,7.967,4.267,24.566-42.666Z" transform="translate(-332.757 15.331)" fill="#575a89"/>
        <path id="Path_61" data-name="Path 61" d="M508.708,372.547h2.324l8.631,23.893s16.267,63.146,14.607,75.945-63.409,11.077-60.088,10.666c3.16-.391,19.6-97.682,14.773-103.038Z" transform="translate(-365.966 -181.477)" fill="#2f2e41"/>
        <path id="Path_62" data-name="Path 62" d="M471.433,677.96s.664-3.413,3.32-3.413,2.656,4.693,2.656,4.693l7.636,8.96s6.64,10.666-1.992,10.666-8.632-2.56-8.632-2.56-2.324-2.987-4.316-1.28-6.64-1.707-5.976-3.413,1.656-12.747,2.322-10.854S471.433,677.96,471.433,677.96Z" transform="translate(-315.744 -354.626)" fill="#2f2e41"/>
        <path id="Path_63" data-name="Path 63" d="M629.732,655.938s-.664-.427,2.656,0a12.175,12.175,0,0,0,4.648,0l-2.324,11.52s1.992,19.626-4.648,17.92-6.64-13.653-6.64-13.653,1-10.666.332-11.52-.332-12.373.664-12.373,5.8-2.765,5.8-2.765S627.076,655.938,629.732,655.938Z" transform="translate(-518.196 -337.724)" fill="#2f2e41"/>
        <path id="Path_64" data-name="Path 64" d="M582.429,216.486c.558-1.1.276-2.6.667-3.819.614-1.909,2.523-2.356,4.125-2.531a9.593,9.593,0,0,1,3.2.011,3.242,3.242,0,0,1,2.216,2.065c.237.611.177-1.3.025-3.76-.315-5.144-3.179-9.437-7.086-10.624l-.067-.02a13.807,13.807,0,0,0-5.949-.7,7.349,7.349,0,0,0-5.21,3.421c-.567.923-.968,2.01-1.6,2.859-1.112,1.491-2.76,2.034-4.275,2.726a12.607,12.607,0,0,0-4.687,3.476,10.206,10.206,0,0,0-2.266,6.175c-.032,2.725,1.317,5.536,3.49,6.074a2.205,2.205,0,0,1,1.042.578c2.075,2.068-.292,4.232-.276,6.56a3.422,3.422,0,0,0,3.206,3.3c2.911.067,5.451-2.526,6.058-6.186a20.886,20.886,0,0,0-.1-4.84c-.169-1.842,2.917-6.18.878-3a5.207,5.207,0,0,0-.78,2.11c-.339,2.54,1.459,3.394,2.593,4.8a7.309,7.309,0,0,1,1.138,6.217,8.448,8.448,0,0,0,.985-8.793c-.365-.72-.836-1.347-1.183-2.082-.541-1.147-.69-3.643.824-3.575C580.477,216.973,581.6,218.128,582.429,216.486Z" transform="translate(-453.405 -80.832)" fill="#2f2e41"/>
      </g>
      <path id="Path_65" data-name="Path 65" d="M228.324,688.066s13.328-31.616,45.559-17.945Z" transform="translate(-23.883 -350.122)" fill="#03528a"/>
      <path id="Path_66" data-name="Path 66" d="M358.538,633.656s16.482-26.926-7.307-60.516Z" transform="translate(-154.901 -296.485)" fill="#03528a"/>
    </g>
  </g>
</svg>
