<svg xmlns="http://www.w3.org/2000/svg" width="224.4" height="229.165" viewBox="0 0 224.4 229.165">
  <g id="Group_15" data-name="Group 15" transform="translate(-646 -106.659)">
    <g id="undraw_coming_home_52ir" transform="translate(768.774 166.174)">
      <path id="Path_118" data-name="Path 118" d="M167.117,483.421l-.17-.042a43.921,43.921,0,0,1,13.414-23.892c10.381-9.3,24.357-12.02,36.974-7.185s22.1,16.538,25.075,30.963l-.17.043c-4.012-19.529-19.454-33.168-37.55-33.168C186.831,450.14,171.029,464.136,167.117,483.421Z" transform="translate(-153.866 -416.483)" fill="#3f3d56"/>
      <circle id="Ellipse_15" data-name="Ellipse 15" cx="5.246" cy="5.246" r="5.246" transform="translate(32.153 1.457)" fill="#ffa200"/>
      <path id="Path_119" data-name="Path 119" d="M214.169,772.891a1.944,1.944,0,0,0,.724.979,1.674,1.674,0,0,0-.592-2.19A1.944,1.944,0,0,0,214.169,772.891Z" transform="translate(-196.483 -707.145)" fill="#3f3d56"/>
      <path id="Path_120" data-name="Path 120" d="M206.625,778.439a1.944,1.944,0,0,1,.5,1.109,1.674,1.674,0,1,1-.5-1.109Z" transform="translate(-188.699 -712.823)" fill="#03528a"/>
      <path id="Path_121" data-name="Path 121" d="M343.169,772.891a.654.654,0,1,0,.132-1.211A1.943,1.943,0,0,0,343.169,772.891Z" transform="translate(-315.286 -707.145)" fill="#3f3d56"/>
      <path id="Path_122" data-name="Path 122" d="M335.625,778.439a.654.654,0,1,1-1.122-.474A1.944,1.944,0,0,1,335.625,778.439Z" transform="translate(-307.453 -712.823)" fill="#03528a"/>
      <path id="Path_123" data-name="Path 123" d="M319.258,74.969l-1.972-1.578,11.046-9.862h28.009v8.679L338.194,84.437Z" transform="translate(-290.187 -57.394)" fill="#3f3d56"/>
      <path id="Path_124" data-name="Path 124" d="M557.2,69.061V63.726h-3.719v1.307l-1.388-1.5-9.073,9.862-3.55,2.367-5.505,40.221,8.3,8.3h19.294v-50.5Z" transform="translate(-487.528 -57.394)" fill="#ccc"/>
      <rect id="Rectangle_136" data-name="Rectangle 136" width="29.982" height="50.89" transform="translate(27.502 15.997)" fill="#f2f2f2"/>
      <rect id="Rectangle_137" data-name="Rectangle 137" width="5.523" height="12.427" transform="translate(38.963 54.46)" fill="#ccc"/>
      <path id="Path_125" data-name="Path 125" d="M354.374,582.225v-1.973h-2.367v1.973h2.367Z" transform="translate(-320.6 -524.214)" fill="#3f3d56"/>
      <path id="Path_126" data-name="Path 126" d="M354.177,617.016h-2.17v1.973h2.367v-1.973Z" transform="translate(-320.6 -557.427)" fill="#3f3d56"/>
      <rect id="Rectangle_138" data-name="Rectangle 138" width="2.367" height="1.972" transform="translate(35.051 56.038)" fill="#3f3d56"/>
      <rect id="Rectangle_139" data-name="Rectangle 139" width="2.367" height="1.972" transform="translate(35.051 59.589)" fill="#3f3d56"/>
      <path id="Path_127" data-name="Path 127" d="M521.85,582.225v-1.973h-2.367v1.973h2.367Z" transform="translate(-473.134 -524.214)" fill="#3f3d56"/>
      <path id="Path_128" data-name="Path 128" d="M521.653,617.016h-2.17v1.973h2.367v-1.973Z" transform="translate(-473.134 -557.427)" fill="#3f3d56"/>
      <rect id="Rectangle_140" data-name="Rectangle 140" width="2.367" height="1.972" transform="translate(49.994 56.038)" fill="#3f3d56"/>
      <rect id="Rectangle_141" data-name="Rectangle 141" width="2.367" height="1.972" transform="translate(49.994 59.589)" fill="#3f3d56"/>
      <path id="Path_129" data-name="Path 129" d="M693.41,173.748v-1.972h-2.367v1.972h2.367Z" transform="translate(-629.387 -155.187)" fill="#3f3d56"/>
      <path id="Path_130" data-name="Path 130" d="M693.213,208.539h-2.17v1.972h2.367v-1.972Z" transform="translate(-629.387 -188.399)" fill="#3f3d56"/>
      <rect id="Rectangle_142" data-name="Rectangle 142" width="2.367" height="1.972" transform="translate(65.301 16.589)" fill="#3f3d56"/>
      <rect id="Rectangle_143" data-name="Rectangle 143" width="2.367" height="1.972" transform="translate(65.301 20.14)" fill="#3f3d56"/>
      <path id="Path_131" data-name="Path 131" d="M693.41,288.121v-1.972h-2.367v1.972h2.367Z" transform="translate(-629.387 -258.514)" fill="#3f3d56"/>
      <path id="Path_132" data-name="Path 132" d="M693.213,322.912h-2.17v1.973h2.367v-1.973Z" transform="translate(-629.387 -291.727)" fill="#3f3d56"/>
      <rect id="Rectangle_144" data-name="Rectangle 144" width="2.367" height="1.972" transform="translate(65.301 27.635)" fill="#3f3d56"/>
      <rect id="Rectangle_145" data-name="Rectangle 145" width="2.367" height="1.972" transform="translate(65.301 31.185)" fill="#3f3d56"/>
      <path id="Path_133" data-name="Path 133" d="M693.41,402.5v-1.972h-2.367V402.5h2.367Z" transform="translate(-629.387 -361.842)" fill="#3f3d56"/>
      <path id="Path_134" data-name="Path 134" d="M693.213,437.286h-2.17v1.972h2.367v-1.972Z" transform="translate(-629.387 -395.055)" fill="#3f3d56"/>
      <rect id="Rectangle_146" data-name="Rectangle 146" width="2.367" height="1.972" transform="translate(65.301 38.681)" fill="#3f3d56"/>
      <rect id="Rectangle_147" data-name="Rectangle 147" width="2.367" height="1.972" transform="translate(65.301 42.231)" fill="#3f3d56"/>
      <path id="Path_135" data-name="Path 135" d="M693.41,516.869V514.9h-2.367v1.972h2.367Z" transform="translate(-629.387 -465.17)" fill="#3f3d56"/>
      <path id="Path_136" data-name="Path 136" d="M693.213,551.66h-2.17v1.973h2.367V551.66Z" transform="translate(-629.387 -498.383)" fill="#3f3d56"/>
      <rect id="Rectangle_148" data-name="Rectangle 148" width="2.367" height="1.972" transform="translate(65.301 49.727)" fill="#3f3d56"/>
      <rect id="Rectangle_149" data-name="Rectangle 149" width="2.367" height="1.972" transform="translate(65.301 53.277)" fill="#3f3d56"/>
      <rect id="Rectangle_150" data-name="Rectangle 150" width="22.881" height="4.734" transform="translate(30.796 18.562)" fill="#3f3d56"/>
      <rect id="Rectangle_151" data-name="Rectangle 151" width="22.881" height="4.734" transform="translate(30.796 28.029)" fill="#3f3d56"/>
      <rect id="Rectangle_152" data-name="Rectangle 152" width="22.881" height="4.734" transform="translate(30.796 37.497)" fill="#3f3d56"/>
      <rect id="Rectangle_153" data-name="Rectangle 153" width="22.881" height="4.734" transform="translate(30.796 46.965)" fill="#3f3d56"/>
      <rect id="Rectangle_154" data-name="Rectangle 154" width="101.626" height="0.193" transform="translate(0 66.689)" fill="#3f3d56"/>
      <rect id="Rectangle_155" data-name="Rectangle 155" width="0.567" height="22.411" transform="translate(18.389 44.388)" fill="#3f3d56"/>
      <path id="Path_137" data-name="Path 137" d="M178.3,460.137c.036,7.837-5.477,14.215-5.477,14.215s-5.572-6.327-5.608-14.164,5.477-14.215,5.477-14.215S178.261,452.3,178.3,460.137Z" transform="translate(-154.105 -412.893)" fill="#03528a"/>
      <path id="Path_138" data-name="Path 138" d="M178.3,460.137c.036,7.837-5.477,14.215-5.477,14.215s-5.572-6.327-5.608-14.164,5.477-14.215,5.477-14.215S178.261,452.3,178.3,460.137Z" transform="translate(-154.105 -412.893)" opacity="0.1"/>
      <rect id="Rectangle_156" data-name="Rectangle 156" width="0.567" height="22.411" transform="translate(11.013 44.388)" fill="#3f3d56"/>
      <path id="Path_139" data-name="Path 139" d="M101.925,460.137c.036,7.837-5.477,14.215-5.477,14.215s-5.572-6.327-5.608-14.164,5.477-14.215,5.477-14.215S101.889,452.3,101.925,460.137Z" transform="translate(-85.109 -412.893)" fill="#03528a"/>
      <path id="Path_140" data-name="Path 140" d="M901.218,231.434c-4.469.021-8.107.087-8.107.087s4.324-5.728,8.091-3.606a51.429,51.429,0,0,0,8.094,3.531S905.687,231.414,901.218,231.434Z" transform="translate(-818.081 -215.469)" fill="#f2f2f2"/>
      <path id="Path_141" data-name="Path 141" d="M130.218,345.434c-4.469.021-8.107.087-8.107.087s4.324-5.728,8.091-3.606a51.436,51.436,0,0,0,8.094,3.531S134.687,345.414,130.218,345.434Z" transform="translate(-113.36 -318.459)" fill="#f2f2f2"/>
      <path id="Path_142" data-name="Path 142" d="M298.218,107.434c-4.469.021-8.107.087-8.107.087s4.324-5.728,8.091-3.606a51.435,51.435,0,0,0,8.094,3.531S302.687,107.414,298.218,107.434Z" transform="translate(-267.318 -103.444)" fill="#f2f2f2"/>
      <rect id="Rectangle_157" data-name="Rectangle 157" width="0.567" height="22.411" transform="translate(91.778 44.388)" fill="#3f3d56"/>
      <path id="Path_143" data-name="Path 143" d="M1022.93,460.137c.036,7.837-5.477,14.215-5.477,14.215s-5.572-6.327-5.608-14.164,5.477-14.215,5.477-14.215S1022.894,452.3,1022.93,460.137Z" transform="translate(-925.348 -412.893)" fill="#03528a"/>
      <path id="Path_144" data-name="Path 144" d="M796.962,534.7h5.726v-1.382h3.159V534.7h5.923v6.121h-5.923v7.7h-3.159v-7.7h-5.726L794,537.464Z" transform="translate(-725.5 -481.812)" fill="#3f3d56"/>
    </g>
    <g id="Group_12" data-name="Group 12" transform="translate(274 -230)">
      <path id="Path_180" data-name="Path 180" d="M270.219,414.707V400.882a20.8,20.8,0,1,1,41.592,0v13.825a1.115,1.115,0,0,1-1.113,1.113h-1.25a1.114,1.114,0,0,1-1.017-.661l-.3-.666a.528.528,0,0,0-1.01.215,1.114,1.114,0,0,1-1.113,1.113H271.332a1.114,1.114,0,0,1-1.113-1.113Z" transform="translate(132.801 -43.427)" fill="#2f2e41"/>
      <path id="Path_183" data-name="Path 183" d="M36.487,613.9h7.182l3.416-27.7h-10.6Z" transform="translate(356.897 -54.746)" fill="#ffb8b8"/>
      <path id="Path_184" data-name="Path 184" d="M0,0H22.571V8.721H8.721A8.721,8.721,0,0,1,0,0H0Z" transform="translate(414.415 565.823) rotate(179.997)" fill="#2f2e41"/>
      <path id="Path_185" data-name="Path 185" d="M288.78,633.19l-13.886-56.442a2.05,2.05,0,0,0-4.038.376l-3.091,55.2a2.636,2.636,0,0,1-2.842,2.479l-24.69-1.975a2.634,2.634,0,0,1-2.425-2.7c.325-12.145,6.542-96.875,24.272-115.4a2.626,2.626,0,0,1,2.445-.727l23.678,6.444a2.643,2.643,0,0,1,2.008,1.989L316.3,627.6a2.636,2.636,0,0,1-2.065,3.168l-22.388,4.38a2.632,2.632,0,0,1-3.066-1.957Z" transform="translate(146.227 -98.872)" fill="#2f2e41"/>
      <path id="Path_186" data-name="Path 186" d="M303.027,495.387l-24.841-5.577a2.632,2.632,0,0,1-2.045-2.308l-1.728-17.12a18.753,18.753,0,0,1,14.581-20.211q.3-.066.6-.128h0a18.431,18.431,0,0,1,17.19,5.389,18.747,18.747,0,0,1,4.623,17.728l-5.247,20.314a2.623,2.623,0,0,1-2.542,1.978,2.69,2.69,0,0,1-.587-.065Z" transform="translate(131.105 -72.24)" fill="#b9c6d1"/>
      <path id="Path_187" data-name="Path 187" d="M217.808,540.789a5.318,5.318,0,0,1,3.309-7.452l17.98-36.744,9.275,6.907L227.85,537.337a5.347,5.347,0,0,1-10.042,3.453Z" transform="translate(154.735 -91.684)" fill="#ffb8b8"/>
      <path id="Path_189" data-name="Path 189" d="M260.582,489.5a2.169,2.169,0,0,1-1.046-.269l-9.737-5.352a2.181,2.181,0,0,1-.915-2.857l9.808-20.38a8.634,8.634,0,0,1,4.386-4.276,8.4,8.4,0,0,1,8.5,1.167,8.009,8.009,0,0,1,2.2,2.662,8.365,8.365,0,0,1-.1,7.965l-11.188,20.215A2.185,2.185,0,0,1,260.582,489.5Z" transform="translate(141.727 -74.749)" fill="#b9c6d1"/>
      <path id="Path_191" data-name="Path 191" d="M282.219,397.024a14.938,14.938,0,0,1,29.876,0v.879h-3.867a.992.992,0,0,1-.805-.414l-.7-.983a.4.4,0,0,0-.73.284.989.989,0,0,1-.982,1.113H282.219Z" transform="translate(127.831 -44.255)" fill="#2f2e41"/>
      <path id="Path_181" data-name="Path 181" d="M127.487,613.9h7.182l3.416-27.7h-10.6Z" transform="translate(319.204 -54.746)" fill="#ffb8b8"/>
      <path id="Path_182" data-name="Path 182" d="M0,0H22.571V8.721H8.721A8.721,8.721,0,0,1,0,0H0Z" transform="translate(467.722 565.823) rotate(179.997)" fill="#2f2e41"/>
      <circle id="Ellipse_22" data-name="Ellipse 22" cx="14.388" cy="14.388" r="14.388" transform="translate(412.269 343.312)" fill="#ffb8b8"/>
      <path id="Path_188" data-name="Path 188" d="M395.973,516.847a5.318,5.318,0,0,0-6.252-5.235L357.4,486.535l-5.287,10.285,33.323,21.347a5.347,5.347,0,0,0,10.536-1.32Z" transform="translate(98.88 -87.518)" fill="#ffb8b8"/>
      <path id="Path_190" data-name="Path 190" d="M336.729,487.125,317.784,473.9a8.365,8.365,0,0,1-3.592-7.11,8.01,8.01,0,0,1,.8-3.357,8.4,8.4,0,0,1,7.123-4.791,8.634,8.634,0,0,1,5.82,1.908l17.778,13.982a2.181,2.181,0,0,1,.436,2.968l-6.386,9.091a2.183,2.183,0,0,1-3.033.535Z" transform="translate(114.589 -75.961)" fill="#b9c6d1"/>
    </g>
  </g>
</svg>
