<svg xmlns="http://www.w3.org/2000/svg" width="50" height="50" viewBox="0 0 50 50">
  <g id="google_icon" transform="translate(-797 -679)">
    <circle id="Ellipse_25" data-name="Ellipse 25" cx="25" cy="25" r="25" transform="translate(797 679)" fill="#ee958e"/>
    <path id="Union_1" data-name="Union 1" d="M1.362,20.285h0a15.189,15.189,0,0,1,0-12.569A12.684,12.684,0,0,1,12.755,0a11.685,11.685,0,0,1,8.531,3.64L17.686,7.5a6.756,6.756,0,0,0-4.931-2.084,7.821,7.821,0,0,0-7.271,5.818A9.873,9.873,0,0,0,5.073,14,9.413,9.413,0,0,0,5.5,16.768h0a7.791,7.791,0,0,0,7.257,5.818,7.083,7.083,0,0,0,4.421-1.4,6.97,6.97,0,0,0,2.607-4.541H12.755v-5.2H24.73A13.119,13.119,0,0,1,25,14.311a14.4,14.4,0,0,1-3.8,10.3A11.553,11.553,0,0,1,12.755,28,12.682,12.682,0,0,1,1.362,20.285Z" transform="translate(810 690)" fill="#f2f2f2"/>
  </g>
</svg>
