<svg xmlns="http://www.w3.org/2000/svg" width="50" height="50" viewBox="0 0 50 50">
  <g id="twiter_icon" transform="translate(-1009 -684)">
    <circle id="Ellipse_24" data-name="Ellipse 24" cx="25" cy="25" r="25" transform="translate(1009 684)" fill="#2daae1"/>
    <path id="twitter" d="M28.968,2.835a11.854,11.854,0,0,1-3.41.935A5.955,5.955,0,0,0,28.169.486,11.864,11.864,0,0,1,24.4,1.927,5.94,5.94,0,0,0,14.127,5.99a6,6,0,0,0,.153,1.353A16.859,16.859,0,0,1,2.042,1.14,5.943,5.943,0,0,0,3.879,9.066a5.91,5.91,0,0,1-2.69-.742V8.4a5.94,5.94,0,0,0,4.763,5.821,5.907,5.907,0,0,1-1.564.208,6.026,6.026,0,0,1-1.118-.1,5.945,5.945,0,0,0,5.546,4.123A11.911,11.911,0,0,1,1.442,20.99a11.876,11.876,0,0,1-1.417-.085,16.8,16.8,0,0,0,9.1,2.669c10.921,0,16.893-9.047,16.893-16.893q0-.386-.018-.768A12.1,12.1,0,0,0,28.968,2.835Z" transform="translate(1019.975 696.948)" fill="#f2f2f2"/>
  </g>
</svg>
